<?xml version="1.0" encoding="UTF-8"?>
<!-- Created with Grafika (https://www.grafika.cc/) -->
<svg xmlns="http://www.w3.org/2000/svg" xmlns:svg="http://www.w3.org/2000/svg" xmlns:xlink="http://www.w3.org/1999/xlink" viewBox="0 0 2193 1004.7" preserveAspectRatio="xMidYMid meet">
	<defs>
		<mask id="mask_1" mask-type="alpha">
			<path d="M-1632,-612 L1632,-612 L1632,612 L-1632,612 L-1632,-612 Z" fill-rule="evenodd" style="fill:white;" />
		</mask>
	</defs>
	<g transform="matrix(1, 0, 0, 1, 842.8514404296875, -736.3292236328125)">
		<g transform="matrix(1, 0, 0, 1, 307.8360595703125, 1237.4136962890625)">
			<g mask="url(#mask_1)">
				<path d="M-1150.69,2.78 L-1150.69,-498.07 L-1108.45,-495.91 C-1085.22,-494.72 -1031.08,-491.72 -988.13,-489.23 C-945.17,-486.75 -870.59,-482.47 -822.38,-479.73 C-701.34,-472.86 -677.07,-468.87 -624.95,-447.34 C-523.32,-405.34 -464.08,-323.42 -457.05,-215.16 C-449.8,-103.53 -497.92,-18.17 -588.66,18.29 C-617.33,29.8 -617.31,29.64 -590.7,42.96 C-543.11,66.77 -514.83,113.33 -492.89,204 C-478.43,263.77 -439.29,449.92 -440.86,451.49 C-441.48,452.1 -460.52,454.02 -483.17,455.74 C-505.81,457.46 -542.97,460.28 -565.74,462.01 C-588.5,463.73 -608.03,464.12 -609.14,462.87 C-610.24,461.62 -620.69,414.34 -632.35,357.81 C-669.2,179.11 -686.17,137.68 -730.76,117.52 L-747.47,109.97 L-817.59,108.89 C-856.16,108.3 -903.86,108.8 -923.58,110 L-959.44,112.19 L-959.44,300.04 C-959.44,447.41 -960.3,488.2 -963.42,489.35 C-966.72,490.56 -1134,503.58 -1146.7,503.61 C-1149.87,503.62 -1150.69,401.34 -1150.69,2.78 ZM-729.94,-57.49 C-664.21,-67.8 -631.08,-109.21 -631.16,-180.96 C-631.24,-252.68 -660.02,-289.5 -729.94,-307.3 C-749.13,-312.19 -797.3,-315.31 -921.98,-319.76 L-959.44,-321.1 L-959.44,-187.64 L-959.44,-54.19 L-855.05,-54.21 C-797.63,-54.22 -741.33,-55.7 -729.94,-57.49 ZM647.06,477.95 C607.62,474.86 574.27,472.2 572.95,472.04 C571.64,471.88 570.56,295.82 570.56,80.78 L570.56,-310.18 L513.98,-308.1 C482.87,-306.96 424.06,-305.07 383.3,-303.91 L309.19,-301.8 L309.19,-380.4 L309.19,-459 L316.66,-459 C320.77,-459 346.23,-460.41 373.24,-462.14 C400.25,-463.87 461.79,-467.46 510,-470.13 C594.6,-474.81 679.3,-479.58 851.06,-489.33 C895.77,-491.87 947.4,-494.72 965.81,-495.66 C984.22,-496.6 1008.96,-498.21 1020.8,-499.23 L1042.31,-501.08 L1042.31,-413.1 L1042.31,-325.13 L1020.8,-325.03 C1005.07,-324.96 752.28,-316.32 746.67,-315.66 C746.23,-315.6 745.88,-135.55 745.88,84.47 L745.88,484.5 L732.33,484.04 C724.88,483.78 686.51,481.04 647.06,477.95 ZM-383.96,440.72 C-380.82,435.87 -327.49,358.3 -265.45,268.34 L-152.65,104.78 L-168.37,80.28 C-177.01,66.81 -220.56,0.56 -265.15,-66.94 C-367.5,-221.9 -376.13,-235.14 -376.13,-237.34 C-376.13,-238.34 -329.36,-238.77 -272.2,-238.31 L-168.27,-237.47 L-107.24,-134.68 C-73.68,-78.15 -45.18,-32.25 -43.92,-32.68 C-42.65,-33.11 -14.53,-79.37 18.59,-135.47 L78.8,-237.47 L182.84,-238.31 C240.06,-238.77 286.87,-238.05 286.87,-236.72 C286.87,-235.38 235.31,-156.93 172.29,-62.39 L57.7,109.49 L93.66,162.32 C137.98,227.43 281.15,439.53 284.64,445.26 C286.73,448.67 268.05,449.43 182.64,449.4 L78.09,449.37 L16.19,347.32 C-17.86,291.19 -47.02,245.71 -48.61,246.23 C-50.2,246.76 -79.78,292.34 -114.35,347.52 L-177.2,447.84 L-283.43,448.68 L-389.67,449.52 L-383.96,440.72 Z" style="fill:#F5060B;" />
			</g>
		</g>
	</g>
</svg>